#!OML:ASF F:\VICON\USERDATA\INSTALL\rory3\rory3.ASF
:FULLY-SPECIFIED
:DEGREES
9
root 0.9304455036382963 17.84670771104473 -10.012013279113408 -2.413493588925174 -5.629125304840722 -3.1147443431008583
lfemur -23.100708436179843 -4.275029505617903 -18.710702770150036
ltibia 26.767069543164066
lfoot -0.8582019998021408 -3.072158096130306
ltoes -3.148547038754079
rfemur 5.897160116588363 3.1744634400889633 27.280359133909556
rtibia 46.807172360223866
rfoot 7.21381333267345 6.318021579878292
rtoes 2.714094978030604
lowerback 10.926456572804696 2.2762338469159205 3.6830551778006924
upperback 0.1185296147621448 3.540240331693241 0.7803528843215581
thorax -5.836944309440306 1.644678801025483 -1.8089898909801132
lowerneck -15.61661228202164 -3.715839442579639 -1.377498965420802
upperneck 22.01264227262541 -4.829630393646138 -0.03904361736750073
head 9.564039806531502 -2.3665326279610426 -0.399664147112
lclavicle 1.4734886063103383e-16 2.372896056574176e-16
lhumerus -38.87619647547302 13.249378217857696 76.66963863524126
lradius 18.108683743062993
lwrist -2.1329750752156587
lhand -25.453450078478273 20.7209476274911
lfingers 7.12502
lthumb 1.073653037391461 50.69688533844893
rclavicle 1.4734886063103383e-16 2.372896056574176e-16
rhumerus -23.126346030895576 -13.958035695925913 -81.7089928973372
rradius 31.73722817947722
rwrist -0.03892508016655949
rhand -19.74328149009684 22.91603879561102
rfingers 7.12502
rthumb 6.587645576334124 -6.9659376018976955
10
root 0.9926691298469745 17.921052199869766 -9.007334783798392 -3.0937482177276454 -6.5255016702412725 -1.7296700098763935
lfemur -19.9203781550501 -3.8557422203168943 -21.338793401012857
ltibia 29.30789125637899
lfoot -3.9912336043069034 -0.8563887506115266
ltoes 2.4264273215337298
rfemur -1.4147268321191735 3.439355542239324 24.34429836277692
rtibia 58.96423530079698
rfoot 22.899633024849024 5.829303826886705
rtoes 9.411618750941532
lowerback 11.30544694671546 2.4546285666913894 2.6051314669437495
upperback -0.00284072971457619 3.6440046810181284 0.5714104937357533
thorax -6.227152357017443 1.7145801521775976 -1.4658337765635854
lowerneck -15.62793638391135 -3.353926254494874 -1.2264223019190685
upperneck 22.650601696264474 -4.2770568482699804 -0.4288084492173383
head 9.772627000791683 -2.1385387373188247 -0.49747844757533616
lclavicle 1.4734894426444113e-16 2.372895763718394e-16
lhumerus -38.85186480334016 12.308316211903598 77.318257974605
lradius 20.103739450121374
lwrist 0.08765121029720024
lhand -24.62931375228901 21.039568810291577
lfingers 7.12502
lthumb 1.8695748014355493 51.01060077003037
rclavicle 1.4734894426444113e-16 2.372895763718394e-16
rhumerus -24.719662129462 -15.08930135642077 -81.31061148881143
rradius 30.197397864161506
rwrist 0.8645127037540883
rhand -18.445250888270376 23.904556523948983
rfingers 7.12502
rthumb 7.840636959349955 -5.930451383989964
11
root 1.0073381346039494 17.98404408287224 -8.060454154182054 -3.786639703933541 -6.286772245240025 -0.18402864151214837
lfemur -15.800322862554212 -4.735675359059009 -23.914188336204212
ltibia 29.324032374255438
lfoot -6.0488832629880935 1.317454472941364
ltoes 1.6025860926456152
rfemur -8.637895811957067 1.7697939808345196 21.81415153249211
rtibia 69.15603127212835
rfoot 15.477076791081512 0.512965034821935
rtoes 11.359512437521827
lowerback 11.242365101261298 2.262841603623431 1.1080674254469942
upperback 0.4259124993639608 3.1716178256987857 0.3746468617241764
thorax -5.832470231856185 1.5319969176981405 -0.7448025758772099
lowerneck -15.998479061296667 -2.913181304920612 -1.141762329940231
upperneck 22.722747687513927 -3.6512121551309233 -0.536182444906919
head 9.86256397844645 -1.8512754924341845 -0.47569511163768036
lclavicle 1.4734883295832905e-16 2.3728955366991054e-16
lhumerus -37.04813034934187 9.969328012491601 78.81852128461477
lradius 21.599780630272832
lwrist 3.651369200410028
lhand -25.599161513525306 18.848541473757106
lfingers 7.12502
lthumb 0.9329313736553793 48.825059390591576
rclavicle 1.4734883295832905e-16 2.3728955366991054e-16
rhumerus -24.603851596291708 -16.98071127610316 -80.82378979353395
rradius 26.89557013997656
rwrist 3.641873508388346
rhand -18.146202477333713 26.290398631675895
rfingers 7.12502
rthumb 8.129220840256846 -3.530597700088271
12
root 0.9980559525784248 18.0125762912696 -7.166080941050108 -4.4748845435399875 -5.398358232339058 0.45427127614846863
lfemur -11.69149359288229 -5.266588338258059 -25.303277626619774
ltibia 28.54358230480486
lfoot -8.661941818461305 2.0599696881353706
ltoes 0.1154402582039653
rfemur -14.874188670989392 -0.2762784854518192 20.69247082405694
rtibia 74.28908648994178
rfoot 4.626647917309594 -4.061731787423895
rtoes 8.281090895147994
lowerback 11.547893100507007 1.7353274617951442 0.5183429670455707
upperback 0.6830882172380097 2.3958589142736773 0.4004998078933405
thorax -5.77753351634254 1.1676237985949414 -0.26827853583164296
lowerneck -15.991290744799935 -2.791478737657773 -1.0749328251142767
upperneck 22.920094113516328 -3.3667691105286015 -1.0678944079953636
head 9.918674926665767 -1.7762377558612783 -0.6373057253414498
lclavicle 1.4734889583251873e-16 2.3728954731333104e-16
lhumerus -34.977253952263446 9.401460271494468 78.96482267289954
lradius 22.51240165883445
lwrist 3.575192722369043
lhand -25.825778794538135 19.819492092126872
lfingers 7.12502
lthumb 0.7139889274415283 49.7966625931517
rclavicle 1.4734889583251873e-16 2.3728954731333104e-16
rhumerus -25.148169660571128 -19.654866513788242 -80.28384396559571
rradius 25.449246784585075
rwrist 6.4050924278584525
rhand -17.301738403450134 18.743147730292442
rfingers 7.12502
rthumb 8.944180729492883 -11.049196299721752
